<?xml version="1.0" encoding="utf-8"?>
<!-- Uploaded to: SVG Repo, www.svgrepo.com, Generator: SVG Repo Mixer Tools -->
<svg width="800px" height="800px" viewBox="0 -27.5 1079 1079" class="icon"  version="1.1" xmlns="http://www.w3.org/2000/svg"><path d="M161.102552 256.441195L327.729968 26.072988H704.575356l112.011962 126.153131-41.753074 160.221057-228.096183-12.775472 33.136768-50.145901-58.389742-96.44302-180.569938 238.649295-179.812597-135.290883z" fill="#178E3B" /><path d="M204.737804 225.613695l167.061955 102.576239-23.933214 38.978226-167.061956-102.576239z" fill="#2FA65B" /><path d="M350.537103 423.788705a25.960653 25.960653 0 0 1-13.656967-3.898443L136.445518 295.872584a26.072392 26.072392 0 0 1-8.305919-36.128886l115.401373-182.047374A166.366692 166.366692 0 0 1 384.754014 0.000596h259.023007a166.565339 166.565339 0 0 1 140.4557 76.479017l25.029496 38.760956 40.610855-22.571243a26.072392 26.072392 0 0 1 36.488933 33.397493l-95.598771 214.786849a26.072392 26.072392 0 0 1-25.699929 15.395126l-239.183158-17.207778A26.072392 26.072392 0 0 1 512.757043 291.763078l43.602972-30.678515-36.439272-60.177563-147.991863 211.732654a26.072392 26.072392 0 0 1-21.391777 11.149051zM186.305864 265.392716L343.311326 362.530999l156.794399-224.371556a26.072392 26.072392 0 0 1 43.68988 1.427774l69.774687 115.252388a26.072392 26.072392 0 0 1-7.30027 34.825266l-3.724627 2.619655L750.512427 302.93696l56.949554-127.878875a26.072392 26.072392 0 0 1-28.76654-11.012482l-38.264339-59.271237A114.619201 114.619201 0 0 0 643.777021 52.14538H384.754014a114.495047 114.495047 0 0 0-97.17553 53.460819z" fill="#203529" /><path d="M454.975656 144.466479a13.036196 13.036196 0 0 1-12.018131-7.970703c-6.207712-14.62537-18.759707-23.812785-37.407675-27.313935a96.207127 96.207127 0 0 0-29.36248-0.744925 13.036196 13.036196 0 0 1-4.246075-25.72476 121.509762 121.509762 0 0 1 37.606322 0.670433c27.835382 4.96617 47.700062 19.86468 57.458586 42.969785a13.048611 13.048611 0 0 1-12.005716 18.114105zM519.312387 995.469354h-1.080142l-215.357958-8.90186a166.366692 166.366692 0 0 1-137.898123-83.456485L35.470869 678.776699a166.565339 166.565339 0 0 1-3.985352-159.873425l21.106222-41.05781-39.853513-23.887277a26.072392 26.072392 0 0 1 10.677265-48.296002l233.869356-24.570126a26.072392 26.072392 0 0 1 26.184131 14.550878l104.624785 215.718005a26.072392 26.072392 0 0 1-34.427973 35.036329l-48.420157-22.422257-33.894109 61.642584 257.409001 22.260857a26.072392 26.072392 0 0 1 23.812785 26.767655l-7.200946 235.545439a26.072392 26.072392 0 0 1-26.072392 25.277805zM105.220725 449.438973a26.072392 26.072392 0 0 1 4.842016 30.41779l-32.180781 62.834465a114.619201 114.619201 0 0 0 2.743808 110.013079l129.517712 224.309479a114.495047 114.495047 0 0 0 94.891091 57.433755l189.024842 7.809302 5.636603-184.555289-272.742051-23.589307a26.072392 26.072392 0 0 1-20.59719-38.487817l64.920256-118.058274a26.072392 26.072392 0 0 1 33.807202-11.086974l4.134336 1.911975-64.74644-133.527893z" fill="#203529" /><path d="M253.113265 877.609727a13.011365 13.011365 0 0 1-10.06891-4.755108 121.509762 121.509762 0 0 1-18.225843-32.900876c-9.584708-26.606255-6.642252-51.238458 8.479735-71.239707a13.036196 13.036196 0 0 1 20.795836 15.730343c-23.701046 31.336532 8.690797 71.45077 9.075676 71.848063a13.036196 13.036196 0 0 1-10.056494 21.317285zM718.095753 1024a26.072392 26.072392 0 0 1-21.106222-10.751758L558.781023 822.994273a26.072392 26.072392 0 0 1-0.484202-29.946005L692.780702 594.575288a26.072392 26.072392 0 0 1 47.551077 12.291271l4.767523 53.100771 70.333381-1.46502-109.404723-234.055587a26.072392 26.072392 0 0 1 11.273206-34.005849L924.949145 278.900698a26.072392 26.072392 0 0 1 35.433623 10.875912L1060.277275 480.738258A166.366692 166.366692 0 0 1 1056.962357 641.878056L927.43223 866.199951a166.565339 166.565339 0 0 1-136.457933 83.394408L744.925486 951.891213l-0.757341 46.458519a26.072392 26.072392 0 0 1-26.072392 25.650268z m-106.375359-216.847809L694.022245 920.430527a26.072392 26.072392 0 0 1 23.924523-19.405309L788.379473 897.511652a114.619201 114.619201 0 0 0 93.897857-57.384093L1011.857119 615.805664a114.495047 114.495047 0 0 0 2.296853-110.894574l-87.739807-167.608234-162.642064 87.392175 115.947652 247.99811a26.072392 26.072392 0 0 1-23.080275 37.109704L721.870042 712.645978a26.072392 26.072392 0 0 1-26.506932-23.738293l-0.409709-4.544045z" fill="#203529" /><path d="M915.376853 650.46953a72.195695 72.195695 0 0 1-8.939106-0.558694 13.036196 13.036196 0 1 1 3.22801-25.873745c38.984434 4.866847 57.495832-43.305002 57.682064-43.789203a13.036196 13.036196 0 1 1 24.42114 9.150168 121.509762 121.509762 0 0 1-19.380478 32.280104c-16.06556 18.958354-35.619854 28.79137-57.01163 28.79137z" fill="#203529" /></svg>